HIERARCHY
ROOT newVegas:Hips
{
	OFFSET 0.000000 96.479958 0.000000
	CHANNELS 6 Xposition Yposition Zposition Xrotation Yrotation Zrotation
	JOINT newVegas:Pelvis
	{
		OFFSET 0.000000 0.000000 0.000000
		CHANNELS 3 Xrotation Yrotation Zrotation
		JOINT newVegas:LeftUpLeg
		{
			OFFSET 18.735201 -5.666702 -4.541200
			CHANNELS 3 Xrotation Yrotation Zrotation
			JOINT newVegas:LeftLeg
			{
				OFFSET -0.021200 -31.938179 0.493100
				CHANNELS 3 Xrotation Yrotation Zrotation
				JOINT newVegas:LeftFoot
				{
					OFFSET 0.021200 -31.938179 -4.336299
					CHANNELS 3 Xrotation Yrotation Zrotation
					JOINT newVegas:LeftToeBase
					{
						OFFSET 0.943001 -26.722000 15.023500
						CHANNELS 3 Xrotation Yrotation Zrotation
						End Site
						{
							OFFSET 0.000000 30.670183 0.000000
						}
					}
				}
				JOINT newVegas:Left_PantLeg
				{
					OFFSET 0.663870 -9.044666 -1.108900
					CHANNELS 3 Xrotation Yrotation Zrotation
					End Site
					{
						OFFSET 1.415995 20.635357 0.000000
					}
				}
			}
		}
		JOINT newVegas:RightUpLeg
		{
			OFFSET -18.735201 -5.666702 -4.541200
			CHANNELS 3 Xrotation Yrotation Zrotation
			JOINT newVegas:RightLeg
			{
				OFFSET 0.018946 -31.938133 0.493100
				CHANNELS 3 Xrotation Yrotation Zrotation
				JOINT newVegas:RightFoot
				{
					OFFSET -0.018946 -31.938126 -4.336299
					CHANNELS 3 Xrotation Yrotation Zrotation
					JOINT newVegas:RightToeBase
					{
						OFFSET -0.943001 -26.722004 15.023500
						CHANNELS 3 Xrotation Yrotation Zrotation
						End Site
						{
							OFFSET 0.000000 30.670187 0.000000
						}
					}
				}
				JOINT newVegas:Right_PantLeg
				{
					OFFSET -0.661674 -9.044716 -1.108900
					CHANNELS 3 Xrotation Yrotation Zrotation
					End Site
					{
						OFFSET -1.415958 20.635269 0.000000
					}
				}
			}
		}
	}
	JOINT newVegas:Spine
	{
		OFFSET 0.000000 10.199997 -0.299500
		CHANNELS 3 Xrotation Yrotation Zrotation
		JOINT newVegas:Spine1
		{
			OFFSET 0.000000 11.900002 -1.516600
			CHANNELS 3 Xrotation Yrotation Zrotation
			JOINT newVegas:Spine2
			{
				OFFSET 0.000000 13.600006 -2.842500
				CHANNELS 3 Xrotation Yrotation Zrotation
				JOINT newVegas:Neck
				{
					OFFSET 0.000000 9.624100 -2.890100
					CHANNELS 3 Xrotation Yrotation Zrotation
					JOINT newVegas:Head
					{
						OFFSET 0.000000 14.068802 -1.351900
						CHANNELS 3 Xrotation Yrotation Zrotation
						JOINT newVegas:Hair_Back
						{
							OFFSET 0.000000 3.231903 -17.524799
							CHANNELS 3 Xrotation Yrotation Zrotation
							End Site
							{
								OFFSET 0.000000 19.849884 0.000000
							}
						}
						JOINT newVegas:Hair_Front
						{
							OFFSET 0.000000 31.260406 4.573800
							CHANNELS 3 Xrotation Yrotation Zrotation
							JOINT newVegas:Hair_Front1
							{
								OFFSET 0.000000 2.284103 11.993300
								CHANNELS 3 Xrotation Yrotation Zrotation
								JOINT newVegas:Hair_Front2
								{
									OFFSET 0.000000 2.284103 11.993300
									CHANNELS 3 Xrotation Yrotation Zrotation
									End Site
									{
										OFFSET 0.000000 12.208862 0.000000
									}
								}
							}
						}
						JOINT newVegas:Jowel
						{
							OFFSET 0.000000 -7.458206 6.864100
							CHANNELS 3 Xrotation Yrotation Zrotation
							End Site
							{
								OFFSET 0.000000 19.849884 0.000000
							}
						}
					}
				}
				JOINT newVegas:LeftShoulder
				{
					OFFSET 15.263000 10.923401 -0.547700
					CHANNELS 3 Xrotation Yrotation Zrotation
					JOINT newVegas:LeftArm
					{
						OFFSET 25.438599 -2.830597 -13.032500
						CHANNELS 3 Xrotation Yrotation Zrotation
						JOINT newVegas:LeftForeArm
						{
							OFFSET 29.960503 0.000000 0.000000
							CHANNELS 3 Xrotation Yrotation Zrotation
							JOINT newVegas:LeftHand
							{
								OFFSET 27.849251 0.000000 0.000000
								CHANNELS 3 Xrotation Yrotation Zrotation
								JOINT newVegas:LeftHandThumb1
								{
									OFFSET 4.487587 -3.305161 6.305391
									CHANNELS 3 Xrotation Yrotation Zrotation
									JOINT newVegas:LeftHandThumb2
									{
										OFFSET 5.480453 -3.164139 3.164143
										CHANNELS 3 Xrotation Yrotation Zrotation
										JOINT newVegas:LeftHandThumb3
										{
											OFFSET 5.159721 -2.978973 2.978967
											CHANNELS 3 Xrotation Yrotation Zrotation
											End Site
											{
												OFFSET 2.494507 5.926697 1.738678
											}
										}
									}
								}
								JOINT newVegas:LeftHandIndex1
								{
									OFFSET 18.578728 -0.527832 5.208049
									CHANNELS 3 Xrotation Yrotation Zrotation
									JOINT newVegas:LeftHandIndex2
									{
										OFFSET 3.192009 0.000000 0.000000
										CHANNELS 3 Xrotation Yrotation Zrotation
										JOINT newVegas:LeftHandIndex3
										{
											OFFSET 3.835129 0.000000 0.000000
											CHANNELS 3 Xrotation Yrotation Zrotation
											End Site
											{
												OFFSET -0.034599 3.816971 0.371180
											}
										}
									}
								}
								JOINT newVegas:LeftHandMiddle1
								{
									OFFSET 18.476105 0.000000 0.000000
									CHANNELS 3 Xrotation Yrotation Zrotation
									JOINT newVegas:LeftHandMiddle2
									{
										OFFSET 3.324875 0.000000 0.000000
										CHANNELS 3 Xrotation Yrotation Zrotation
										JOINT newVegas:LeftHandMiddle3
										{
											OFFSET 4.596550 0.000000 0.000000
											CHANNELS 3 Xrotation Yrotation Zrotation
											End Site
											{
												OFFSET 0.057701 4.578827 0.399218
											}
										}
									}
								}
								JOINT newVegas:LeftHandRing1
								{
									OFFSET 17.732719 0.121887 -4.201567
									CHANNELS 3 Xrotation Yrotation Zrotation
									JOINT newVegas:LeftHandRing2
									{
										OFFSET 2.733170 0.000000 0.000000
										CHANNELS 3 Xrotation Yrotation Zrotation
										JOINT newVegas:LeftHandRing3
										{
											OFFSET 3.178268 0.000000 0.000000
											CHANNELS 3 Xrotation Yrotation Zrotation
											End Site
											{
												OFFSET 0.119102 3.170624 0.185394
											}
										}
									}
								}
								JOINT newVegas:LeftHandPinky1
								{
									OFFSET 15.989624 -0.606689 -7.535461
									CHANNELS 3 Xrotation Yrotation Zrotation
									JOINT newVegas:LeftHandPinky2
									{
										OFFSET 2.538986 0.000000 0.000000
										CHANNELS 3 Xrotation Yrotation Zrotation
										JOINT newVegas:LeftHandPinky3
										{
											OFFSET 2.593102 0.000000 0.000000
											CHANNELS 3 Xrotation Yrotation Zrotation
											End Site
											{
												OFFSET -0.150902 2.584198 0.152708
											}
										}
									}
								}
							}
							JOINT newVegas:Left_Sleeve
							{
								OFFSET 0.267448 -0.649796 0.577675
								CHANNELS 3 Xrotation Yrotation Zrotation
								End Site
								{
									OFFSET 0.000000 15.991241 0.000000
								}
							}
							JOINT newVegas:Left_CapeC
							{
								OFFSET 15.715958 -8.608795 -6.935905
								CHANNELS 3 Xrotation Yrotation Zrotation
								JOINT newVegas:Left_CapeC1
								{
									OFFSET 0.000000 -8.688499 0.000000
									CHANNELS 3 Xrotation Yrotation Zrotation
									End Site
									{
										OFFSET 0.000000 8.688499 0.000000
									}
								}
							}
						}
						JOINT newVegas:Left_CapeB
						{
							OFFSET 26.118385 -8.608795 -7.079235
							CHANNELS 3 Xrotation Yrotation Zrotation
							JOINT newVegas:Left_CapeB1
							{
								OFFSET 0.000000 -8.688499 0.000000
								CHANNELS 3 Xrotation Yrotation Zrotation
								End Site
								{
									OFFSET 0.000000 8.688499 0.000000
								}
							}
						}
						JOINT newVegas:Left_CapeA
						{
							OFFSET 5.115639 -8.608795 -10.395809
							CHANNELS 3 Xrotation Yrotation Zrotation
							JOINT newVegas:Left_CapeA1
							{
								OFFSET 0.000000 -8.688499 0.000000
								CHANNELS 3 Xrotation Yrotation Zrotation
								End Site
								{
									OFFSET 0.000000 8.688499 0.000000
								}
							}
						}
					}
				}
				JOINT newVegas:RightShoulder
				{
					OFFSET -15.263000 10.923401 -0.547700
					CHANNELS 3 Xrotation Yrotation Zrotation
					JOINT newVegas:RightArm
					{
						OFFSET -25.438599 -2.830597 -13.032500
						CHANNELS 3 Xrotation Yrotation Zrotation
						JOINT newVegas:RightForeArm
						{
							OFFSET -29.960503 0.000000 0.000000
							CHANNELS 3 Xrotation Yrotation Zrotation
							JOINT newVegas:RightHand
							{
								OFFSET -27.849251 0.000000 0.000000
								CHANNELS 3 Xrotation Yrotation Zrotation
								JOINT newVegas:RightHandThumb1
								{
									OFFSET -4.487587 -3.305161 6.305391
									CHANNELS 3 Xrotation Yrotation Zrotation
									JOINT newVegas:RightHandThumb2
									{
										OFFSET -5.480453 -3.164139 3.164143
										CHANNELS 3 Xrotation Yrotation Zrotation
										JOINT newVegas:RightHandThumb3
										{
											OFFSET -5.159721 -2.978973 2.978967
											CHANNELS 3 Xrotation Yrotation Zrotation
											End Site
											{
												OFFSET -2.494507 5.926697 1.738678
											}
										}
									}
								}
								JOINT newVegas:RightHandIndex1
								{
									OFFSET -18.578728 -0.527832 5.208049
									CHANNELS 3 Xrotation Yrotation Zrotation
									JOINT newVegas:RightHandIndex2
									{
										OFFSET -3.192009 0.000000 0.000000
										CHANNELS 3 Xrotation Yrotation Zrotation
										JOINT newVegas:RightHandIndex3
										{
											OFFSET -3.835129 0.000000 0.000000
											CHANNELS 3 Xrotation Yrotation Zrotation
											End Site
											{
												OFFSET 0.034599 3.816971 0.371180
											}
										}
									}
								}
								JOINT newVegas:RightHandMiddle1
								{
									OFFSET -18.476105 0.000000 0.000000
									CHANNELS 3 Xrotation Yrotation Zrotation
									JOINT newVegas:RightHandMiddle2
									{
										OFFSET -3.324875 0.000000 0.000000
										CHANNELS 3 Xrotation Yrotation Zrotation
										JOINT newVegas:RightHandMiddle3
										{
											OFFSET -4.596550 0.000000 0.000000
											CHANNELS 3 Xrotation Yrotation Zrotation
											End Site
											{
												OFFSET -0.057701 4.578827 0.399218
											}
										}
									}
								}
								JOINT newVegas:RightHandRing1
								{
									OFFSET -17.732719 0.121887 -4.201567
									CHANNELS 3 Xrotation Yrotation Zrotation
									JOINT newVegas:RightHandRing2
									{
										OFFSET -2.733170 0.000000 0.000000
										CHANNELS 3 Xrotation Yrotation Zrotation
										JOINT newVegas:RightHandRing3
										{
											OFFSET -3.178268 0.000000 0.000000
											CHANNELS 3 Xrotation Yrotation Zrotation
											End Site
											{
												OFFSET -0.119102 3.170624 0.185394
											}
										}
									}
								}
								JOINT newVegas:RightHandPinky1
								{
									OFFSET -15.989624 -0.606689 -7.535461
									CHANNELS 3 Xrotation Yrotation Zrotation
									JOINT newVegas:RightHandPinky2
									{
										OFFSET -2.538986 0.000000 0.000000
										CHANNELS 3 Xrotation Yrotation Zrotation
										JOINT newVegas:RightHandPinky3
										{
											OFFSET -2.593102 0.000000 0.000000
											CHANNELS 3 Xrotation Yrotation Zrotation
											End Site
											{
												OFFSET 0.150902 2.584198 0.152708
											}
										}
									}
								}
							}
							JOINT newVegas:Right_CapeC
							{
								OFFSET -15.715958 -8.608795 -6.935905
								CHANNELS 3 Xrotation Yrotation Zrotation
								JOINT newVegas:Right_CapeC1
								{
									OFFSET 0.000000 -8.688499 0.000000
									CHANNELS 3 Xrotation Yrotation Zrotation
									End Site
									{
										OFFSET 0.000000 8.688499 0.000000
									}
								}
							}
							JOINT newVegas:Right_Sleeve
							{
								OFFSET -0.267448 -0.649994 0.577675
								CHANNELS 3 Xrotation Yrotation Zrotation
								End Site
								{
									OFFSET 0.000000 15.991302 0.000000
								}
							}
						}
						JOINT newVegas:Right_CapeA
						{
							OFFSET -5.115540 -8.608795 -10.395824
							CHANNELS 3 Xrotation Yrotation Zrotation
							JOINT newVegas:Right_CapeA1
							{
								OFFSET 0.000000 -8.688499 0.000000
								CHANNELS 3 Xrotation Yrotation Zrotation
								End Site
								{
									OFFSET 0.000000 8.688499 0.000000
								}
							}
						}
						JOINT newVegas:Right_CapeB
						{
							OFFSET -26.118187 -8.608795 -7.079266
							CHANNELS 3 Xrotation Yrotation Zrotation
							JOINT newVegas:Right_CapeB1
							{
								OFFSET 0.000000 -8.688499 0.000000
								CHANNELS 3 Xrotation Yrotation Zrotation
								End Site
								{
									OFFSET 0.000000 8.688499 0.000000
								}
							}
						}
					}
				}
				JOINT newVegas:Left_Collar
				{
					OFFSET 18.625099 8.655502 8.828100
					CHANNELS 3 Xrotation Yrotation Zrotation
					JOINT newVegas:Left_Collar1
					{
						OFFSET 14.783401 10.540405 -1.259500
						CHANNELS 3 Xrotation Yrotation Zrotation
						End Site
						{
							OFFSET 0.000000 18.199875 0.000000
						}
					}
				}
				JOINT newVegas:Collar_Back
				{
					OFFSET 0.000000 15.630707 -20.132601
					CHANNELS 3 Xrotation Yrotation Zrotation
					End Site
					{
						OFFSET 0.000000 22.523010 0.000000
					}
				}
				JOINT newVegas:Left_Peck
				{
					OFFSET 17.239599 -5.132599 25.482599
					CHANNELS 3 Xrotation Yrotation Zrotation
					End Site
					{
						OFFSET 0.000000 22.523010 0.000000
					}
				}
				JOINT newVegas:Right_Peck
				{
					OFFSET -17.239599 -5.132202 25.482599
					CHANNELS 3 Xrotation Yrotation Zrotation
					End Site
					{
						OFFSET 0.000000 22.523010 0.000000
					}
				}
				JOINT newVegas:Right_Collar
				{
					OFFSET -18.625099 8.655792 8.828100
					CHANNELS 3 Xrotation Yrotation Zrotation
					JOINT newVegas:Right_Collar1
					{
						OFFSET -14.783401 10.539993 -1.259500
						CHANNELS 3 Xrotation Yrotation Zrotation
						End Site
						{
							OFFSET 0.000000 18.199631 0.000000
						}
					}
				}
			}
		}
		JOINT newVegas:Belly
		{
			OFFSET 0.000000 -6.540398 9.014299
			CHANNELS 3 Xrotation Yrotation Zrotation
			End Site
			{
				OFFSET 0.000000 11.566666 0.000000
			}
		}
	}
	JOINT newVegas:ElvisFacialAnim_Joint
	{
		OFFSET 1.000000 -95.330101 -8.825800
		CHANNELS 3 Xrotation Yrotation Zrotation
		End Site
		{
			OFFSET 0.000000 35.315800 0.000000
		}
	}
}
MOTION
Frames: 4
Frame Time: 0.033333
-0.027907 93.712471 4.069085 -2.666265 -4.498742 -5.690411 -0.000000 0.000000 0.000000 -5.262878 15.491873 10.478105 30.615520 8.707024 -3.119518 -22.011985 28.208678 -4.083822 -0.000000 -0.000000 0.000000 0.000000 -0.000003 0.000001 -2.456093 -5.805832 6.736697 14.436476 -6.877107 -0.327837 -10.145140 -21.177099 -0.794303 -0.000000 -0.000001 -0.000000 0.000001 0.000001 -0.000000 7.667781 -5.865134 -7.291887 1.296468 -1.393845 -1.302643 1.322639 -1.386617 -1.285690 0.629192 -1.822833 1.915790 0.629193 -1.822828 1.915788 0.000000 -0.000001 -0.000001 0.629196 -1.822858 1.915787 0.629260 -1.822823 1.915788 -0.000001 0.000000 0.000001 0.000000 -0.000001 -0.000001 0.443627 -5.067301 -21.120823 6.366746 -4.494775 -43.431964 0.000001 -5.826092 0.000009 -19.628360 0.514411 -8.318393 18.805264 -23.184493 16.689439 35.006748 40.609149 -21.029927 0.000002 -0.000000 -0.000003 1.697685 5.604607 -84.056222 5.605488 5.845924 -87.590366 -0.000000 0.000000 0.000001 5.842211 8.295008 -99.618309 5.336750 5.828478 -84.948511 0.000002 -0.000000 0.000000 5.116621 8.406225 -99.261479 6.561067 5.807953 -96.981665 -0.000002 -0.000001 0.000002 9.381251 10.028752 -101.496071 5.738022 5.849952 -88.891258 0.000001 -0.000007 -0.000002 -0.000000 0.000000 0.000000 -0.000000 0.000000 0.000000 -0.000001 0.000000 0.000000 -0.000001 0.000000 -0.000000 -0.000001 0.000000 -0.000001 -0.000001 0.000000 -0.000000 -0.000001 -0.000001 -0.000001 1.582362 5.434603 4.222138 1.633695 9.673357 65.764442 0.000004 22.107085 0.000012 -2.298938 -2.954032 -5.977294 -3.164849 7.522592 -12.266175 -0.410208 -33.194019 0.137147 0.000003 -0.000000 -0.000000 -1.249967 -1.251114 29.860498 0.226913 -1.437420 17.940646 -0.000001 0.000000 -0.000001 -0.837505 -2.717506 37.620279 0.513765 -2.128217 27.140935 0.000001 0.000000 0.000002 0.586663 -4.605808 39.425399 0.823577 -2.646355 34.568048 -0.000000 0.000001 -0.000000 -8.550093 -16.924669 39.917606 0.736261 -2.515061 32.629265 0.000003 -0.000000 -0.000001 -0.000000 -0.000001 -0.000000 -0.000000 -0.000001 0.000002 -0.000000 -0.000001 0.000001 0.000000 -0.000001 0.000002 0.000000 0.000000 0.000004 0.000000 -0.000001 0.000002 0.000000 0.000000 0.000005 0.000000 0.000002 0.000001 0.000000 0.000002 0.000001 0.000000 0.000002 0.000001 0.000000 0.000002 0.000001 0.000000 0.000002 0.000001 0.000000 0.000002 0.000001 0.000000 0.000002 0.000001 0.000000 -0.000001 -0.000000 -0.000000 0.000000 0.000000 
-1.001170 93.730072 4.272926 -3.100178 -8.314416 -5.991238 -0.000000 0.000000 -0.000000 -4.721549 17.257865 11.471151 31.244810 8.494395 -3.593115 -22.349625 27.883084 -2.412747 -0.000000 0.000001 -0.000000 0.000004 0.000001 -0.000000 -2.842277 -5.904456 7.318073 14.736451 -4.147023 -0.416262 -9.979761 -20.058512 -1.804511 -0.000000 -0.000000 -0.000000 0.000001 -0.000000 -0.000001 7.556292 -6.097695 -7.447468 1.296467 -1.458927 -1.347786 1.322634 -1.451225 -1.329940 0.651927 -1.896483 1.916926 0.651928 -1.896482 1.916932 0.000000 0.000001 0.000001 0.651855 -1.896479 1.916926 0.652070 -1.896498 1.916938 0.000000 -0.000000 0.000001 0.000000 0.000001 0.000001 0.431375 -5.115047 -21.049888 6.775160 -3.108996 -43.059408 0.000002 -5.626942 0.000002 -18.884638 1.412593 -8.076213 18.805270 -23.184493 16.689444 35.006731 40.609166 -21.029900 -0.000001 0.000000 -0.000004 1.695189 5.601372 -84.012222 5.599799 5.845682 -87.534468 -0.000000 -0.000001 0.000000 5.837792 8.294951 -99.575709 5.336752 5.828487 -84.948518 -0.000002 0.000001 0.000001 5.116623 8.406227 -99.261466 6.561067 5.807954 -96.981665 -0.000001 0.000001 -0.000001 9.381242 10.028753 -101.496092 5.738020 5.849949 -88.891244 -0.000001 -0.000003 -0.000003 0.000000 -0.000001 0.000000 0.000000 -0.000001 0.000000 -0.000001 -0.000000 0.000000 0.000002 0.000000 0.000000 0.000002 -0.000001 -0.000000 0.000002 0.000000 0.000000 0.000000 -0.000000 -0.000000 1.376616 5.964736 4.976190 1.130679 11.196238 65.588285 0.000001 22.849472 -0.000007 -2.923489 -1.887247 -5.691268 -3.164846 7.522590 -12.266175 -0.410207 -33.194019 0.137149 0.000001 -0.000002 -0.000001 -1.249968 -1.251113 29.860498 0.226916 -1.437419 17.940650 -0.000001 0.000001 0.000000 -0.837506 -2.717506 37.620279 0.513766 -2.128217 27.140933 -0.000000 0.000000 -0.000001 0.586661 -4.605807 39.425399 0.823577 -2.646354 34.568048 0.000001 0.000001 0.000002 -8.550098 -16.924673 39.917603 0.736262 -2.515067 32.629262 -0.000000 -0.000000 -0.000001 -0.000001 -0.000000 -0.000002 -0.000000 -0.000001 0.000001 -0.000001 -0.000001 -0.000001 -0.000001 0.000000 0.000000 -0.000001 0.000000 0.000001 -0.000001 0.000000 0.000000 -0.000000 0.000000 0.000002 0.000001 0.000000 -0.000001 0.000001 0.000000 -0.000001 0.000001 0.000000 -0.000001 0.000001 0.000000 -0.000001 0.000001 0.000000 -0.000001 0.000001 0.000000 -0.000001 0.000001 0.000000 -0.000001 0.000000 -0.000002 -0.000001 -0.000000 0.000000 -0.000000 
-1.998139 93.697456 4.372472 -3.612880 -12.209506 -6.459290 0.000000 0.000000 -0.000000 -5.891965 18.991064 12.318194 34.139454 9.501319 -4.098097 -23.818184 26.551913 1.993325 -0.000000 -0.000000 -0.000000 -0.000000 0.000001 0.000000 -3.279381 -5.706096 7.983648 15.152059 -2.057806 -0.361692 -9.713104 -18.529811 -2.753644 0.000000 0.000003 0.000000 0.000001 0.000000 0.000000 7.458241 -6.316895 -7.600474 1.296467 -1.519375 -1.391833 1.322635 -1.511303 -1.373108 0.677208 -2.101353 1.884685 0.677205 -2.101342 1.884696 0.000000 0.000000 0.000001 0.677205 -2.101337 1.884687 0.677212 -2.101353 1.884693 -0.000000 0.000003 0.000000 0.000000 0.000000 0.000001 0.420723 -5.159761 -20.975393 7.216194 -1.643110 -42.700963 0.000004 -5.424673 -0.000011 -18.075358 2.424494 -7.831624 18.805264 -23.184497 16.689437 35.006738 40.609156 -21.029900 0.000003 -0.000001 0.000001 1.692661 5.598096 -83.967614 5.594931 5.845466 -87.486664 -0.000000 -0.000001 0.000000 5.833540 8.294893 -99.534714 5.336760 5.828466 -84.948504 -0.000002 -0.000001 -0.000000 5.116611 8.406228 -99.261459 6.561063 5.807968 -96.981678 -0.000001 0.000001 0.000002 9.381780 10.028517 -101.500074 5.738024 5.849956 -88.891258 0.000003 -0.000002 -0.000001 -0.000004 0.000000 0.000000 -0.000004 0.000000 0.000000 -0.000005 0.000000 0.000000 -0.000000 0.000000 0.000001 -0.000000 0.000000 0.000000 -0.000000 0.000000 0.000001 -0.000002 -0.000000 0.000001 1.140776 6.555931 5.754447 0.552351 12.844232 65.543923 -0.000000 23.683905 -0.000002 -3.563835 -0.786129 -5.378838 -3.164846 7.522594 -12.266183 -0.410205 -33.194026 0.137154 0.000001 -0.000003 -0.000001 -1.249967 -1.251114 29.860494 0.226915 -1.437420 17.940650 -0.000001 0.000001 0.000000 -0.837507 -2.717506 37.620279 0.513768 -2.128218 27.140938 -0.000000 0.000001 0.000001 0.586663 -4.605808 39.425399 0.823579 -2.646355 34.568048 -0.000000 0.000001 -0.000003 -8.550099 -16.924671 39.917599 0.736264 -2.515067 32.629262 0.000001 0.000002 -0.000003 0.000000 -0.000001 -0.000001 -0.000001 -0.000000 0.000001 -0.000000 -0.000001 0.000001 -0.000000 -0.000001 -0.000003 -0.000000 -0.000001 -0.000002 -0.000000 -0.000001 -0.000003 0.000000 -0.000001 0.000000 -0.000000 -0.000001 0.000001 -0.000000 -0.000001 0.000001 -0.000000 -0.000001 0.000001 -0.000000 -0.000001 0.000001 -0.000000 -0.000001 0.000001 -0.000000 -0.000001 0.000001 -0.000000 -0.000001 0.000001 0.000001 -0.000002 0.000001 0.000000 0.000000 -0.000000 
-3.032043 93.646744 4.397320 -4.251512 -16.194148 -7.035044 -0.000000 -0.000001 0.000000 -7.505344 20.569733 13.890432 37.544764 10.316033 -4.615880 -23.866872 25.502656 4.902770 0.000000 -0.000004 -0.000000 -0.000000 -0.000001 0.000002 -3.681043 -5.251971 8.711730 15.615293 -0.577759 -0.280978 -9.339955 -16.583271 -3.597565 0.000000 -0.000002 -0.000000 -0.000000 -0.000002 -0.000000 7.419993 -6.488320 -7.836167 1.308432 -1.562171 -1.436095 1.334889 -1.554269 -1.416513 0.699616 -2.397107 1.828290 0.699606 -2.397093 1.828299 -0.000000 -0.000003 0.000000 0.699613 -2.397095 1.828289 0.699622 -2.397141 1.828300 -0.000001 0.000001 -0.000001 -0.000000 -0.000003 -0.000000 0.415815 -5.194519 -20.880102 7.606271 -0.145057 -42.376194 0.000008 -5.193206 0.000010 -17.228522 3.511727 -7.599616 18.805270 -23.184493 16.689439 35.006755 40.609166 -21.029924 0.000000 -0.000003 0.000000 1.689822 5.594406 -83.917405 5.593052 5.845383 -87.468208 0.000003 -0.000001 0.000000 5.840810 8.292992 -99.497831 5.336752 5.828479 -84.948524 -0.000001 -0.000001 0.000000 5.119752 8.405566 -99.256316 6.561661 5.807894 -96.987675 -0.000003 -0.000001 -0.000000 9.390229 10.030940 -101.523324 5.739223 5.849970 -88.902958 0.000001 -0.000003 -0.000001 -0.000001 0.000000 0.000000 -0.000001 0.000000 0.000000 -0.000002 0.000001 0.000000 0.000000 0.000000 -0.000001 0.000000 0.000001 -0.000001 0.000000 0.000000 -0.000001 -0.000001 0.000000 -0.000001 0.881895 7.172588 6.540689 -0.079206 14.542004 65.589111 0.000003 24.558700 -0.000004 -4.217422 0.313739 -5.040513 -3.164845 7.522592 -12.266180 -0.410206 -33.194030 0.137148 0.000002 -0.000003 0.000003 -1.249967 -1.251114 29.860498 0.226914 -1.437419 17.940646 0.000000 0.000001 -0.000000 -0.837506 -2.717507 37.620279 0.513767 -2.128217 27.140931 0.000000 0.000001 -0.000003 0.586662 -4.605807 39.425399 0.823580 -2.646354 34.568042 -0.000001 0.000002 0.000002 -8.550092 -16.924674 39.917599 0.736261 -2.515071 32.629262 0.000000 0.000000 -0.000003 -0.000001 -0.000001 0.000002 -0.000001 -0.000000 0.000004 -0.000001 -0.000000 0.000003 0.000000 0.000001 0.000003 0.000000 0.000001 0.000005 0.000000 0.000001 0.000003 0.000001 0.000001 0.000007 0.000001 0.000001 -0.000000 0.000001 0.000001 -0.000000 0.000001 0.000001 -0.000000 0.000001 0.000001 -0.000000 0.000001 0.000001 -0.000000 0.000001 0.000001 -0.000000 0.000001 0.000001 -0.000000 -0.000000 -0.000001 0.000001 -0.000000 -0.000001 0.000000 
